<svg width="100" height="100" viewBox="0 0 100 100" fill="none" xmlns="http://www.w3.org/2000/svg">
<g clip-path="url(#clip0_3227_8308)">
<path d="M50 100C77.6142 100 100 77.6142 100 50C100 22.3858 77.6142 0 50 0C22.3858 0 0 22.3858 0 50C0 77.6142 22.3858 100 50 100Z" fill="#F1F1F1"/>
<mask id="mask0_3227_8308" style="mask-type:luminance" maskUnits="userSpaceOnUse" x="0" y="0" width="100" height="100">
<path d="M50 100C77.6142 100 100 77.6142 100 50C100 22.3858 77.6142 0 50 0C22.3858 0 0 22.3858 0 50C0 77.6142 22.3858 100 50 100Z" fill="white"/>
</mask>
<g mask="url(#mask0_3227_8308)">
<path d="M63 71.9C63 75.9 67.7 77.1 70.1 77.7C77.7 79.7 92.9 83.6 92.9 83.6C96.1 84.7 98.6 87.1 100 90.2V100H0V90.2C1.3 87.1 3.9 84.7 7.1 83.6C7.1 83.6 22.3 79.7 29.9 77.7C32.3 77.1 37 75.9 37 71.9C37 67.9 37 61 37 61H63C63 61 63 67.9 63 71.9Z" fill="#D2D2D2"/>
<mask id="mask1_3227_8308" style="mask-type:luminance" maskUnits="userSpaceOnUse" x="0" y="61" width="100" height="39">
<path d="M63 71.9C63 75.9 67.7 77.1 70.1 77.7C77.7 79.7 92.9 83.6 92.9 83.6C96.1 84.7 98.6 87.1 100 90.2V100H0V90.2C1.3 87.1 3.9 84.7 7.1 83.6C7.1 83.6 22.3 79.7 29.9 77.7C32.3 77.1 37 75.9 37 71.9C37 67.9 37 61 37 61H63C63 61 63 67.9 63 71.9Z" fill="white"/>
</mask>
<g mask="url(#mask1_3227_8308)">
<path d="M50.2 11C50.3 11 50.3 11 50.4 11C53.7 11 58.6 11.2 61.8 13C65.1 14.9 69.1 18.6 70.3 25.1C72.7 38.8 68.2 60.5 64 67.5C60 74.2 54.2 76.7 50.5 76.9H50.4C50.3 76.9 50.3 76.9 50.2 76.9C50.1 76.9 50.1 76.9 50 76.9H49.9C46.2 76.7 40.4 74.2 36.4 67.5C32.2 60.5 27.7 38.8 30.1 25.1C31.3 18.6 35.3 14.9 38.6 13C41.8 11.2 46.7 11 50 11C50.1 11 50.1 11 50.2 11Z" fill="#C0C0C0"/>
</g>
</g>
<path d="M49.6 16C68.7 16 70.3 29.8 70.4 31.1C71.5 43 67.4 59.2 63.6 64.8C59.6 70.7 53.8 72.9 50.1 73.1C49.9 73.1 49.9 73.1 49.8 73.1C49.7 73.1 49.7 73.1 49.6 73.1C45.8 72.8 40 70.6 36 64.7C32.2 59.1 28.1 42.9 29.2 30.9C29.3 29.7 30.5 16 49.6 16Z" fill="#D2D2D2"/>
</g>
<defs>
<clipPath id="clip0_3227_8308">
<rect width="100" height="100" fill="white"/>
</clipPath>
</defs>
</svg>
